<?xml version="1.0" encoding="UTF-8" standalone="no"?>
<svg
   xmlns:dc="http://purl.org/dc/elements/1.1/"
   xmlns:cc="http://creativecommons.org/ns#"
   xmlns:rdf="http://www.w3.org/1999/02/22-rdf-syntax-ns#"
   xmlns:svg="http://www.w3.org/2000/svg"
   xmlns="http://www.w3.org/2000/svg"
   xmlns:sodipodi="http://sodipodi.sourceforge.net/DTD/sodipodi-0.dtd"
   xmlns:inkscape="http://www.inkscape.org/namespaces/inkscape"
   height="512px"
   id="Слой_1"
   style="enable-background:new 0 0 512 512;"
   version="1.1"
   viewBox="0 0 512 512"
   width="512px"
   xml:space="preserve"
   inkscape:version="0.91 r13725"
   sodipodi:docname="resume_white.svg"><metadata
     id="metadata3359"><rdf:RDF><cc:Work
         rdf:about=""><dc:format>image/svg+xml</dc:format><dc:type
           rdf:resource="http://purl.org/dc/dcmitype/StillImage" /><dc:title></dc:title></cc:Work></rdf:RDF></metadata><defs
     id="defs3357" /><sodipodi:namedview
     pagecolor="#ffffff"
     bordercolor="#666666"
     borderopacity="1"
     objecttolerance="10"
     gridtolerance="10"
     guidetolerance="10"
     inkscape:pageopacity="0"
     inkscape:pageshadow="2"
     inkscape:window-width="1280"
     inkscape:window-height="659"
     id="namedview3355"
     showgrid="false"
     inkscape:zoom="0.9609375"
     inkscape:cx="256"
     inkscape:cy="264.688"
     inkscape:window-x="-8"
     inkscape:window-y="-8"
     inkscape:window-maximized="1"
     inkscape:current-layer="Слой_1" /><g
     id="g3337"><path
       d="M416.159,6h-235.8l-3.505,0.581l-0.029,0.219c-2.205,0.657-4.317,1.75-6.19,3.324L58.884,104.102   c-3.349,2.819-5.288,6.639-5.886,10.653l-0.222-0.034v348.194C52.776,486.612,72.164,506,95.86,506h320.299   c23.697,0,43.085-19.388,43.085-43.085V49.084C459.244,25.388,439.855,6,416.159,6z M429.084,462.916   c0,7.01-5.916,12.925-12.925,12.925H95.86c-7.001,0-12.925-5.916-12.925-12.925V128.918l88.592-74.515v71.098h-37.69v30.159h67.8   l0.05-119.501h214.472c7.009,0,12.925,5.924,12.925,12.925V462.916z"
       style="fill:#3C3C3B;"
       id="path3339" /><g
       id="g3341"><path
         d="M257.36,249.327c0-7.009,5.916-12.925,12.925-12.925h70.417c7.001,0,12.925,5.916,12.925,12.925    v42.201h30.159v-42.201c0-23.697-19.388-43.085-43.085-43.085h-70.417c-23.697,0-43.085,19.388-43.085,43.085v42.201h30.159    V249.327z"
         style="fill:#3C3C3B;"
         id="path3343" /></g><g
       id="g3345"><path
         d="M378.863,364.679H132.204c-8.327,0-15.08-6.749-15.08-15.08c0-8.322,6.753-15.08,15.08-15.08    h246.659c8.327,0,15.08,6.757,15.08,15.08C393.943,357.93,387.19,364.679,378.863,364.679z"
         style="fill:#3C3C3B;"
         id="path3347" /></g><g
       id="g3349"><path
         d="M378.863,428.802H132.204c-8.327,0-15.08-6.75-15.08-15.08c0-8.323,6.753-15.08,15.08-15.08    h246.659c8.327,0,15.08,6.757,15.08,15.08C393.943,422.052,387.19,428.802,378.863,428.802z"
         style="fill:#3C3C3B;"
         id="path3351" /></g><path
       d="M305.51,73.102c-30.091,0-54.495,24.395-54.495,54.495c0,30.1,24.404,54.487,54.495,54.487   c30.101,0,54.445-24.387,54.445-54.487C359.955,97.496,335.611,73.102,305.51,73.102z M305.51,151.924   c-13.413,0-24.336-10.906-24.336-24.327s10.923-24.336,24.336-24.336c13.397,0,24.286,10.914,24.286,24.336   S318.907,151.924,305.51,151.924z"
       style="fill:#3C3C3B;"
       id="path3353" /></g><path
     style="fill:#ffffff"
     d="M 87.461778,504.68215 C 76.56517,502.52414 65.469806,494.62307 59.616017,484.85304 52.632171,473.19692 53.020986,485.28877 53.321523,289.0989 l 0.271973,-177.54348 2.168582,-2.93797 C 58.922171,104.33619 171.6065,9.5053086 175.62589,7.7445835 178.52238,6.4757503 197.19116,6.297424 302.06491,6.5368229 l 123.04078,0.2808694 5.88232,2.3782858 c 11.41003,4.6132029 20.42701,13.6301779 25.04021,25.0402099 l 2.37828,5.882317 0,215.934955 0,215.93496 -2.3564,5.72358 c -4.83162,11.7357 -13.48514,20.38921 -25.22083,25.22083 l -5.72358,2.35641 -166.50406,0.1555 c -92.71497,0.0866 -168.558495,-0.25137 -171.139852,-0.76259 z M 423.2084,473.99576 c 1.61587,-1.18541 3.75673,-3.76102 4.75747,-5.72358 1.71434,-3.36205 1.81951,-15.62902 1.81951,-212.21872 0,-196.589693 -0.10517,-208.856662 -1.81951,-212.218704 -1.00074,-1.962565 -3.14156,-4.538175 -4.75738,-5.723577 -2.9218,-2.143506 -3.53699,-2.156773 -112.6504,-2.429495 l -109.71256,-0.274221 0,59.851457 0,59.85146 -33.30081,0 -33.30082,0 0,-14.56911 0,-14.56911 18.73171,0 18.73171,0 0,-35.989233 0,-35.989235 -2.5432,1.907934 c -1.39876,1.049365 -21.51213,17.829887 -44.69638,37.29005 l -42.153196,35.382114 -0.05159,167.8383 c -0.05512,179.35323 -0.264116,171.82283 4.896227,176.41692 1.162211,1.03468 3.451232,2.28518 5.086716,2.77892 1.635484,0.49373 76.110078,0.81791 165.499078,0.72039 l 162.52547,-0.17729 2.93795,-2.15527 z"
     id="path3385"
     inkscape:connector-curvature="0" /><path
     style="fill:#ffffff"
     d="m 291.38211,179.63999 c -7.90501,-2.19537 -16.45256,-6.95955 -22.40729,-12.48924 -22.32506,-20.73152 -22.96297,-56.3471 -1.3906,-77.639479 10.36989,-10.235292 23.33979,-15.571628 37.84667,-15.571628 24.64313,0 45.79603,16.243134 52.1754,40.065037 1.82384,6.81062 1.77746,20.41069 -0.0936,27.44047 -4.90448,18.42675 -21.10856,34.41451 -39.07371,38.55208 -6.28737,1.44804 -21.26874,1.25025 -27.05691,-0.35724 z m 24.45529,-29.59307 c 5.18134,-2.35976 11.30557,-9.02977 12.99721,-14.15549 0.71123,-2.15506 1.09288,-6.83432 0.85813,-10.52112 -0.33548,-5.26849 -1.0637,-7.55177 -3.52586,-11.05499 -9.4081,-13.38611 -26.76769,-15.219437 -37.93202,-4.00597 -12.01101,12.06388 -8.73539,31.9323 6.50856,39.47791 5.67415,2.80865 15.23864,2.92639 21.09398,0.25966 z"
     id="path3387"
     inkscape:connector-curvature="0" /><path
     style="fill:#ffffff"
     d="m 228.09766,265.1004 0.3251,-26.33518 3.91897,-7.92471 c 4.52368,-9.14751 11.16098,-15.76264 20.33629,-20.26838 l 5.92361,-2.90891 46.82926,0 46.82927,0 6.24391,3.05219 c 7.98236,3.90199 16.98078,12.90041 20.88277,20.88277 l 3.05218,6.2439 0.32413,26.79675 0.32411,26.79675 -14.63306,0 -14.63306,0 0,-23.53707 0,-23.53706 -4.04017,-4.04017 -4.04018,-4.04017 -40.20275,0 -40.20275,0 -3.88716,3.56043 -3.88715,3.56043 -0.31455,24.01681 -0.31455,24.0168 -14.57966,0 -14.57966,0 0.3251,-26.33518 z"
     id="path3389"
     inkscape:connector-curvature="0" /><path
     style="fill:#ffffff"
     d="m 125.99267,362.45835 c -10.51395,-5.36119 -10.98321,-19.07 -0.86397,-25.23978 3.33537,-2.03359 5.49753,-2.06789 130.35097,-2.06789 124.85345,0 127.01561,0.0343 130.35098,2.06789 10.1393,6.18201 9.6967,19.96066 -0.81074,25.23978 -3.38819,1.70228 -11.73493,1.81952 -129.54024,1.81952 -117.8256,0 -126.14804,-0.11694 -129.487,-1.81952 z"
     id="path3391"
     inkscape:connector-curvature="0" /><path
     style="fill:#ffffff"
     d="m 127.47967,427.24394 c -9.45522,-3.36925 -12.66664,-14.08829 -6.72203,-22.43672 4.21604,-5.92089 -1.90977,-5.66432 135.24236,-5.66432 125.25634,0 126.4731,0.0198 130.0813,2.1167 9.56205,5.55696 9.40838,19.89 -0.26996,25.17871 -3.16744,1.73084 -10.99048,1.85635 -128.77069,2.06586 -106.31388,0.18911 -126.03188,-0.003 -129.56098,-1.26023 z"
     id="path3393"
     inkscape:connector-curvature="0" /></svg>