<?xml version="1.0" ?><!DOCTYPE svg  PUBLIC '-//W3C//DTD SVG 1.1//EN'  'http://www.w3.org/Graphics/SVG/1.1/DTD/svg11.dtd'><svg height="512px" id="Слой_1" style="enable-background:new 0 0 512 512;" version="1.1" viewBox="0 0 512 512" width="512px" xml:space="preserve" xmlns="http://www.w3.org/2000/svg" xmlns:xlink="http://www.w3.org/1999/xlink"><g><path d="M416.159,6h-235.8l-3.505,0.581l-0.029,0.219c-2.205,0.657-4.317,1.75-6.19,3.324L58.884,104.102   c-3.349,2.819-5.288,6.639-5.886,10.653l-0.222-0.034v348.194C52.776,486.612,72.164,506,95.86,506h320.299   c23.697,0,43.085-19.388,43.085-43.085V49.084C459.244,25.388,439.855,6,416.159,6z M429.084,462.916   c0,7.01-5.916,12.925-12.925,12.925H95.86c-7.001,0-12.925-5.916-12.925-12.925V128.918l88.592-74.515v71.098h-37.69v30.159h67.8   l0.05-119.501h214.472c7.009,0,12.925,5.924,12.925,12.925V462.916z" style="fill:#3C3C3B;"/><g><path d="M257.36,249.327c0-7.009,5.916-12.925,12.925-12.925h70.417c7.001,0,12.925,5.916,12.925,12.925    v42.201h30.159v-42.201c0-23.697-19.388-43.085-43.085-43.085h-70.417c-23.697,0-43.085,19.388-43.085,43.085v42.201h30.159    V249.327z" style="fill:#3C3C3B;"/></g><g><path d="M378.863,364.679H132.204c-8.327,0-15.08-6.749-15.08-15.08c0-8.322,6.753-15.08,15.08-15.08    h246.659c8.327,0,15.08,6.757,15.08,15.08C393.943,357.93,387.19,364.679,378.863,364.679z" style="fill:#3C3C3B;"/></g><g><path d="M378.863,428.802H132.204c-8.327,0-15.08-6.75-15.08-15.08c0-8.323,6.753-15.08,15.08-15.08    h246.659c8.327,0,15.08,6.757,15.08,15.08C393.943,422.052,387.19,428.802,378.863,428.802z" style="fill:#3C3C3B;"/></g><path d="M305.51,73.102c-30.091,0-54.495,24.395-54.495,54.495c0,30.1,24.404,54.487,54.495,54.487   c30.101,0,54.445-24.387,54.445-54.487C359.955,97.496,335.611,73.102,305.51,73.102z M305.51,151.924   c-13.413,0-24.336-10.906-24.336-24.327s10.923-24.336,24.336-24.336c13.397,0,24.286,10.914,24.286,24.336   S318.907,151.924,305.51,151.924z" style="fill:#3C3C3B;"/></g></svg>