<?xml version="1.0" encoding="utf-8"?>
<!-- Generator: Adobe Illustrator 19.1.0, SVG Export Plug-In . SVG Version: 6.00 Build 0)  -->
<svg version="1.1" id="Layer_1" xmlns="http://www.w3.org/2000/svg" xmlns:xlink="http://www.w3.org/1999/xlink" x="0px" y="0px"
	 viewBox="0 0 612 792" style="enable-background:new 0 0 612 792;" xml:space="preserve">
<style type="text/css">
	.st0{fill:#FFFFFF;}
</style>
<g>
	<g>
		<path class="st0" d="M231.8,471.8c0-50,0-100,0-150c50,0,100,0,150,0c0,50,0,100,0,150C331.8,471.7,281.8,471.7,231.8,471.8z
			 M285.7,406.9c-0.6,0.4-1,0.6-1.4,0.9c-11.8,10.6-16.6,24.3-17.2,39.7c0,0.9,1.5,2.4,2.6,2.7c24.6,7.2,49.3,6.8,73.9,0.1
			c2.1-0.6,3.1-1.5,2.6-3.6c-1.6-7.3-2.7-14.7-5.1-21.8c-2.5-7.2-7.3-13.2-13.4-18.1C314.1,421,295.5,418,285.7,406.9z M334.2,386.9
			c-1.2,4.9-2.3,9.3-3.2,13.7c-0.2,0.7,0.3,1.9,0.9,2.5c6.5,5.7,11,12.8,14.5,20.7c0.5,1,2.2,2.3,3.1,2.2c9.5-1.4,19-3,28.4-4.7
			c0.9-0.2,2.2-2,2.1-3c-0.3-4.3-0.8-8.7-1.8-12.9c-2.6-10.8-7.8-20.1-16.8-27.5C353.9,386.2,344.5,388.9,334.2,386.9z M252.2,377.8
			c-0.7,0.5-1.2,0.7-1.6,1c-11.8,10.6-16.6,24.3-17.2,39.7c0,0.9,1.3,2.5,2.2,2.6c9.3,1.7,18.6,3.3,28,4.7c0.9,0.1,2.4-0.7,2.8-1.5
			c3.8-8.7,8.8-16.5,15.8-22c-1.1-5.4-2-10.2-3-15.5C268.9,388.7,259.7,386,252.2,377.8z M328.5,389.3c-0.1-12.1-9.9-21.8-22-21.7
			c-12.1,0.1-21.8,10-21.7,22.1c0.1,12.1,10.1,21.9,22.1,21.8C318.8,411.3,328.5,401.4,328.5,389.3z M362.5,360.4
			c0-12.4-10.5-22.5-22.7-21.9c-12.8,0.7-22.4,11.8-20.9,24.3c0.2,1.6,1.6,3.1,2.7,4.5c3,3.6,6,7.2,9.2,10.6
			c1.3,1.4,2.9,3.2,4.7,3.6C349.4,385.2,362.5,374.7,362.5,360.4z M294.8,361c0-13.2-11-23.6-23.4-22.6
			c-13.1,1.1-22.2,12.7-20.1,25.7c2,12.3,14.6,20.6,26.9,17.3c1.6-0.4,3.1-2.1,4.3-3.5c2.9-3.2,5.2-7.1,8.4-9.8
			C293.7,365.9,295.3,363.9,294.8,361z"/>
		<path d="M285.7,406.9c9.8,11.1,28.3,14.1,42,0c6.1,4.8,10.9,10.8,13.4,18.1c2.4,7,3.5,14.5,5.1,21.8c0.5,2.2-0.5,3.1-2.6,3.6
			c-24.7,6.8-49.3,7.1-73.9-0.1c-1.1-0.3-2.6-1.8-2.6-2.7c0.6-15.4,5.5-29.1,17.2-39.7C284.7,407.5,285.1,407.3,285.7,406.9z"/>
		<path d="M334.2,386.9c10.3,2,19.7-0.7,27.3-9.2c9,7.4,14.2,16.6,16.8,27.5c1,4.2,1.4,8.6,1.8,12.9c0.1,1-1.2,2.8-2.1,3
			c-9.4,1.8-18.9,3.4-28.4,4.7c-0.9,0.1-2.7-1.1-3.1-2.2c-3.5-7.9-8-14.9-14.5-20.7c-0.6-0.5-1.1-1.7-0.9-2.5
			C331.9,396.2,333.1,391.7,334.2,386.9z"/>
		<path d="M252.2,377.8c7.5,8.3,16.7,10.9,27,9.1c1,5.2,2,10.1,3,15.5c-6.9,5.5-11.9,13.3-15.8,22c-0.4,0.8-1.9,1.7-2.8,1.5
			c-9.4-1.4-18.7-3-28-4.7c-0.9-0.2-2.3-1.7-2.2-2.6c0.6-15.4,5.4-29.1,17.2-39.7C251,378.5,251.4,378.3,252.2,377.8z"/>
		<path d="M328.5,389.3c0.1,12.1-9.7,22-21.7,22.1c-12,0.1-22-9.7-22.1-21.8c-0.1-12.1,9.6-22,21.7-22.1
			C318.6,367.5,328.4,377.2,328.5,389.3z"/>
		<path d="M362.5,360.4c0,14.3-13.1,24.8-27,21.2c-1.8-0.5-3.3-2.2-4.7-3.6c-3.2-3.4-6.2-7-9.2-10.6c-1.1-1.3-2.5-2.9-2.7-4.5
			c-1.5-12.5,8.1-23.6,20.9-24.3C352,337.9,362.5,347.9,362.5,360.4z"/>
		<path d="M294.8,361c0.5,2.9-1.2,4.9-3.9,7.2c-3.3,2.7-5.6,6.6-8.4,9.8c-1.2,1.4-2.7,3-4.3,3.5c-12.2,3.3-24.9-5-26.9-17.3
			c-2.1-13,7-24.6,20.1-25.7C283.8,337.4,294.9,347.8,294.8,361z"/>
	</g>
</g>
</svg>
